# xmcd
#
# Track frame offsets:
# 150
# 15097
# 34897
# 55714
# 67639
# 79922
# 100301
# 112504
# 132682
# 147924
# 168727
#
# Disc length: 2409 seconds
#
# Revision: 1
# Processed by: cddbd v1.5.2PL0 Copyright (c) Steve Scherf et al.
# Submitted via: CedeCatalogueitor 2.6.0.6 http://personales.ya.com/cdcatalogueitor
#
DISCID=8609670b
DTITLE=Elk City - New Believers
DYEAR=1900
DGENRE=
TTITLE0=Cherries In The Snow
TTITLE1=Little Borhter
TTITLE2=Silver Lawyers
TTITLE3=Los Cruzados
TTITLE4=White Walls
TTITLE5=Totallly Free
TTITLE6=You Got Me
TTITLE7=My Type Of Criminal
TTITLE8=Melody
TTITLE9=Nighttime
TTITLE10=Magic Dorr
EXTD=
EXTT0=
EXTT1=
EXTT2=
EXTT3=
EXTT4=
EXTT5=
EXTT6=
EXTT7=
EXTT8=
EXTT9=
EXTT10=
PLAYORDER=
